{
  "accessors": [
    {
      "bufferView": 0,
      "componentType": 5125,
      "count": 6912,
      "type": "SCALAR"
    },
    {
      "bufferView": 1,
      "componentType": 5126,
      "count": 1416,
      "max": [
        0.833092391490936,
        1.0,
        0.543321132659912
      ],
      "min": [
        -0.833092391490936,
        -1.0,
        -0.543321132659912
      ],
      "type": "VEC3"
    },
    {
      "bufferView": 2,
      "componentType": 5126,
      "count": 1416,
      "type": "VEC3"
    },
    {
      "bufferView": 3,
      "componentType": 5126,
      "count": 1416,
      "type": "VEC2"
    }
  ],
  "asset": {
    "generator": "Substance Painter 2019.1.0",
    "version": "2.0"
  },
  "bufferViews": [
    {
      "buffer": 0,
      "byteLength": 27648,
      "target": 34963
    },
    {
      "buffer": 0,
      "byteLength": 16992,
      "byteOffset": 27648,
      "target": 34962
    },
    {
      "buffer": 0,
      "byteLength": 16992,
      "byteOffset": 44640,
      "target": 34962
    },
    {
      "buffer": 0,
      "byteLength": 11328,
      "byteOffset": 61632,
      "target": 34962
    }
  ],
  "buffers": [
    {
      "byteLength": 72960,
      "uri": "andy-machinery.bin"
    }
  ],
  "images": [
    {
      "uri": "unlit_material_baseColor.png"
    },
    {
      "uri": "unlit_material_occlusionRoughnessMetallic.png"
    },
    {
      "uri": "unlit_material_normal.png"
    }
  ],
  "materials": [
    {
      "alphaMode": "OPAQUE",
      "name": "unlit_material",
      "normalTexture": {
        "index": 2
      },
      "occlusionTexture": {
        "index": 1
      },
      "pbrMetallicRoughness": {
        "baseColorTexture": {
          "index": 0
        },
        "metallicRoughnessTexture": {
          "index": 1
        }
      }
    }
  ],
  "meshes": [
    {
      "name": "Andy_GEO",
      "primitives": [
        {
          "attributes": {
            "NORMAL": 2,
            "POSITION": 1,
            "TEXCOORD_0": 3
          },
          "indices": 0,
          "material": 0,
          "mode": 4
        }
      ]
    }
  ],
  "nodes": [
    {
      "children": [
        1
      ],
      "name": "andy.obj",
      "scale": [
        0.103529930114746,
        0.103529930114746,
        0.103529930114746
      ],
      "translation": [
        0.0,
        5.10352993011475,
        0.0
      ]
    },
    {
      "children": [
        2
      ],
      "name": "g Andy_GEO"
    },
    {
      "mesh": 0,
      "name": "Andy_GEO"
    }
  ],
  "samplers": [
    {
      "magFilter": 9729,
      "minFilter": 9985,
      "wrapS": 10497,
      "wrapT": 10497
    }
  ],
  "scene": 0,
  "scenes": [
    {
      "name": "Scene",
      "nodes": [
        0
      ]
    }
  ],
  "textures": [
    {
      "sampler": 0,
      "source": 0
    },
    {
      "sampler": 0,
      "source": 1
    },
    {
      "sampler": 0,
      "source": 2
    }
  ]
}